<svg xmlns="http://www.w3.org/2000/svg" version="1.1" xmlns:xlink="http://www.w3.org/1999/xlink" xmlns:svgjs="http://svgjs.dev/svgjs" width="1440" height="560" preserveAspectRatio="none" viewBox="0 0 1440 560"><g mask="url(&quot;#SvgjsMask1050&quot;)" fill="none"><rect width="1440" height="560" x="0" y="0" fill="rgba(54, 197, 239, 1)"></rect><path d="M1305.32 392.72 a126.93 126.93 0 1 0 253.86 0 a126.93 126.93 0 1 0 -253.86 0z" fill="rgba(249, 248, 113, 1)" class="triangle-float3"></path><path d="M1274.876,350.4C1322.94,347.885,1369.637,331.806,1396.078,291.59C1425.431,246.944,1437.316,189.518,1411.357,142.817C1384.791,95.023,1329.546,74.621,1274.876,73.543C1217.935,72.421,1158.986,88.985,1128.747,137.246C1096.823,188.197,1095.517,255.947,1129.515,305.538C1160.246,350.364,1220.601,353.24,1274.876,350.4" fill="rgba(249, 248, 113, 1)" class="triangle-float3"></path><path d="M872.182,623.548C920.709,623.506,965.52,600.996,992.617,560.739C1023.68,514.588,1046.365,454.873,1017.879,407.088C989.795,359.977,926.957,355.891,872.182,358.709C823.378,361.22,775.387,378.898,750.327,420.853C724.66,463.824,725.595,518.051,751.384,560.949C776.429,602.608,823.574,623.59,872.182,623.548" fill="rgba(249, 248, 113, 1)" class="triangle-float2"></path><path d="M499.843,426.953C525.099,426.463,545.271,407.755,557.06,385.414C568.017,364.651,568.237,340.002,556.438,319.705C544.701,299.515,523.197,286.938,499.843,286.99C476.577,287.042,455.763,300.071,443.682,319.955C431.078,340.699,427.368,366.218,438.649,387.71C450.72,410.707,473.876,427.457,499.843,426.953" fill="rgba(249, 248, 113, 1)" class="triangle-float2"></path><path d="M740.62 5.31 a149.5 149.5 0 1 0 299 0 a149.5 149.5 0 1 0 -299 0z" fill="rgba(249, 248, 113, 1)" class="triangle-float3"></path><path d="M312.378,126.717C340.192,127.538,368.605,114.493,380.784,89.474C391.95,66.534,378.614,41.125,364.333,19.984C352.154,1.954,334.074,-10.153,312.378,-11.789C286.979,-13.704,258.45,-10.542,244.814,10.971C230.491,33.568,237.14,62.526,250.627,85.632C263.985,108.516,285.892,125.935,312.378,126.717" fill="rgba(249, 248, 113, 1)" class="triangle-float3"></path></g><defs><mask id="SvgjsMask1050"><rect width="1440" height="560" fill="#ffffff"></rect></mask><style>
                @keyframes float1 {
                    0%{transform: translate(0, 0)}
                    50%{transform: translate(-10px, 0)}
                    100%{transform: translate(0, 0)}
                }

                .triangle-float1 {
                    animation: float1 5s infinite;
                }

                @keyframes float2 {
                    0%{transform: translate(0, 0)}
                    50%{transform: translate(-5px, -5px)}
                    100%{transform: translate(0, 0)}
                }

                .triangle-float2 {
                    animation: float2 4s infinite;
                }

                @keyframes float3 {
                    0%{transform: translate(0, 0)}
                    50%{transform: translate(0, -10px)}
                    100%{transform: translate(0, 0)}
                }

                .triangle-float3 {
                    animation: float3 6s infinite;
                }
            </style></defs></svg>