<svg xmlns="http://www.w3.org/2000/svg" version="1.1" xmlns:xlink="http://www.w3.org/1999/xlink" xmlns:svgjs="http://svgjs.dev/svgjs" width="1440" height="560" preserveAspectRatio="none" viewBox="0 0 1440 560"><g mask="url(&quot;#SvgjsMask1021&quot;)" fill="none"><rect width="1440" height="560" x="0" y="0" fill="#0e2a47"></rect><path d="M961.273,86.491C976.705,86.316,990.162,76.51,997.472,62.918C1004.402,50.032,1002.532,35.064,995.959,21.993C988.486,7.132,977.882,-8.157,961.273,-9.064C943.506,-10.034,927.516,2.006,919.344,17.811C911.772,32.455,915.03,49.686,923.62,63.757C931.808,77.169,945.56,86.67,961.273,86.491" fill="rgba(167, 184, 40, 0.78)" class="triangle-float3"></path><path d="M1463.3312120151154 346.54789978024854L1435.2645182831754 224.4469131826878 1353.8760400146366 297.72942817492714z" fill="rgba(167, 184, 40, 0.78)" class="triangle-float1"></path><path d="M-124.19 316.11 a177.2 177.2 0 1 0 354.4 0 a177.2 177.2 0 1 0 -354.4 0z" fill="rgba(167, 184, 40, 0.78)" class="triangle-float2"></path><path d="M578.0822469277991 114.37998719735064L669.7142340213253 42.92976057445084 576.215104062235 3.2417345693081074z" fill="rgba(167, 184, 40, 0.78)" class="triangle-float2"></path><path d="M19.338695764330076 45.40453426946505L62.80722717001723 101.04171730589627 124.52873602182049 8.020328679149948z" fill="rgba(167, 184, 40, 0.78)" class="triangle-float2"></path><path d="M486.08438495099267 399.39571894990445L408.8883103828755 300.58924926829 310.08184070126106 377.78532383640714 387.27791526937824 476.59179351802163z" fill="rgba(167, 184, 40, 0.78)" class="triangle-float1"></path><path d="M91.00368659443345 613.242094632492L185.83588056043874 571.0200815880834 143.61386751603013 476.18788762207816 48.78167355002484 518.4099006664867z" fill="rgba(167, 184, 40, 0.78)" class="triangle-float3"></path><path d="M113.056,239.062C150.272,237.062,181.602,213.562,199.72,180.992C217.297,149.396,220.265,110.802,201.648,79.808C183.525,49.636,148.234,37.871,113.056,36.711C75.221,35.463,34.924,42.243,13.726,73.608C-9.834,108.467,-13.054,155.19,8.602,191.263C29.726,226.449,72.075,241.264,113.056,239.062" fill="rgba(167, 184, 40, 0.78)" class="triangle-float1"></path><path d="M178.50254450121287-69.55425754618551L140.37580000316342 47.78779632154844 257.7178538708974 85.9145408195979 295.84459836894683-31.427513048136063z" fill="rgba(167, 184, 40, 0.78)" class="triangle-float3"></path><path d="M1308.842,211.747C1328.883,211.358,1342.446,193.793,1352.419,176.405C1362.326,159.132,1369.058,139.376,1360.722,121.293C1350.977,100.153,1332.118,81.601,1308.842,81.876C1285.885,82.148,1269.049,101.831,1259.045,122.496C1250.365,140.424,1252.524,160.763,1262.229,178.158C1272.23,196.083,1288.32,212.146,1308.842,211.747" fill="rgba(167, 184, 40, 0.78)" class="triangle-float2"></path><path d="M-20.86 477.74 a132.11 132.11 0 1 0 264.22 0 a132.11 132.11 0 1 0 -264.22 0z" fill="rgba(167, 184, 40, 0.78)" class="triangle-float3"></path><path d="M1326.38079561929 144.06995017149822L1425.1284404618352 152.70924964510507 1433.767739935442 53.96160480255985 1335.0200950928968 45.32230532895299z" fill="rgba(167, 184, 40, 0.78)" class="triangle-float2"></path><path d="M876.818,280.229C896.092,280.254,913.075,267.361,921.531,250.041C929.094,234.549,922.958,217.481,914.888,202.246C906.055,185.57,895.689,165.683,876.818,165.632C857.906,165.581,847.22,185.315,838.389,202.039C830.336,217.288,824.699,234.448,832.306,249.925C840.792,267.19,857.58,280.204,876.818,280.229" fill="rgba(167, 184, 40, 0.78)" class="triangle-float3"></path><path d="M1252.9023559315087 143.25177894144736L1361.577647705013 22.555639845079483 1240.8815086086452-86.11965192842479 1132.2062168351408 34.57648716794307z" fill="rgba(167, 184, 40, 0.78)" class="triangle-float2"></path><path d="M708.97 423.83 a161.1 161.1 0 1 0 322.2 0 a161.1 161.1 0 1 0 -322.2 0z" fill="rgba(167, 184, 40, 0.78)" class="triangle-float2"></path><path d="M213.45330525666384 153.71648850094755L260.75461394475997 265.1513884803581 372.1895139241705 217.850079792262 324.8882052360744 106.41517981285142z" fill="rgba(167, 184, 40, 0.78)" class="triangle-float3"></path><path d="M1210.1272539517176 339.97403754703043L1251.7096880281472 254.71741321790915 1103.0335344962505 234.97207426782558z" fill="rgba(167, 184, 40, 0.78)" class="triangle-float2"></path><path d="M999.7058963477546 445.1943257375151L1022.4091083502916 284.7621220907264 890.1765325436496 335.5214522029905z" fill="rgba(167, 184, 40, 0.78)" class="triangle-float1"></path><path d="M177.556,458.268C227.571,457.288,275.318,435.216,301.085,392.338C327.633,348.16,330.741,292.073,303.856,248.099C277.971,205.76,227.145,188.394,177.556,190.289C131.41,192.052,91.786,218.227,66.934,257.15C39.661,299.864,20.926,352.944,45.35,397.348C70.414,442.916,125.56,459.287,177.556,458.268" fill="rgba(167, 184, 40, 0.78)" class="triangle-float3"></path><path d="M858.9687862021489 369.5283968223098L917.4024481164848 294.736720216656 784.177109596495 311.0947349079738z" fill="rgba(167, 184, 40, 0.78)" class="triangle-float1"></path></g><defs><mask id="SvgjsMask1021"><rect width="1440" height="560" fill="#ffffff"></rect></mask><style>
                @keyframes float1 {
                    0%{transform: translate(0, 0)}
                    50%{transform: translate(-10px, 0)}
                    100%{transform: translate(0, 0)}
                }

                .triangle-float1 {
                    animation: float1 5s infinite;
                }

                @keyframes float2 {
                    0%{transform: translate(0, 0)}
                    50%{transform: translate(-5px, -5px)}
                    100%{transform: translate(0, 0)}
                }

                .triangle-float2 {
                    animation: float2 4s infinite;
                }

                @keyframes float3 {
                    0%{transform: translate(0, 0)}
                    50%{transform: translate(0, -10px)}
                    100%{transform: translate(0, 0)}
                }

                .triangle-float3 {
                    animation: float3 6s infinite;
                }
            </style></defs></svg>