<?xml version="1.0" standalone="no"?>
<svg xmlns:xlink="http://www.w3.org/1999/xlink" id="wave" style="transform:rotate(0deg); transition: 0.3s" viewBox="0 0 1440 400" version="1.1" xmlns="http://www.w3.org/2000/svg"><defs><linearGradient id="sw-gradient-0" x1="0" x2="0" y1="1" y2="0"><stop stop-color="rgba(49, 52, 75, 1)" offset="0%"/><stop stop-color="rgba(49, 52, 75, 1)" offset="100%"/></linearGradient></defs><path style="transform:translate(0, 0px); opacity:1" fill="url(#sw-gradient-0)" d="M0,0L48,20C96,40,192,80,288,93.3C384,107,480,93,576,73.3C672,53,768,27,864,20C960,13,1056,27,1152,73.3C1248,120,1344,200,1440,253.3C1536,307,1632,333,1728,293.3C1824,253,1920,147,2016,146.7C2112,147,2208,253,2304,293.3C2400,333,2496,307,2592,293.3C2688,280,2784,280,2880,286.7C2976,293,3072,307,3168,280C3264,253,3360,187,3456,173.3C3552,160,3648,200,3744,233.3C3840,267,3936,293,4032,266.7C4128,240,4224,160,4320,166.7C4416,173,4512,267,4608,306.7C4704,347,4800,333,4896,293.3C4992,253,5088,187,5184,166.7C5280,147,5376,173,5472,186.7C5568,200,5664,200,5760,200C5856,200,5952,200,6048,180C6144,160,6240,120,6336,86.7C6432,53,6528,27,6624,53.3C6720,80,6816,160,6864,200L6912,240L6912,400L6864,400C6816,400,6720,400,6624,400C6528,400,6432,400,6336,400C6240,400,6144,400,6048,400C5952,400,5856,400,5760,400C5664,400,5568,400,5472,400C5376,400,5280,400,5184,400C5088,400,4992,400,4896,400C4800,400,4704,400,4608,400C4512,400,4416,400,4320,400C4224,400,4128,400,4032,400C3936,400,3840,400,3744,400C3648,400,3552,400,3456,400C3360,400,3264,400,3168,400C3072,400,2976,400,2880,400C2784,400,2688,400,2592,400C2496,400,2400,400,2304,400C2208,400,2112,400,2016,400C1920,400,1824,400,1728,400C1632,400,1536,400,1440,400C1344,400,1248,400,1152,400C1056,400,960,400,864,400C768,400,672,400,576,400C480,400,384,400,288,400C192,400,96,400,48,400L0,400Z"/></svg>