<svg xmlns="http://www.w3.org/2000/svg" version="1.1" xmlns:xlink="http://www.w3.org/1999/xlink" xmlns:svgjs="http://svgjs.dev/svgjs" width="1440" height="500" preserveAspectRatio="none" viewBox="0 0 1440 500"><g mask="url(&quot;#SvgjsMask1030&quot;)" fill="none"><path d="M547.59 307.43a32.42 32.42 0 1 0-54.71-34.8z" fill="rgba(221, 164, 225, 1)"></path><path d="M1262.3 242.83a14.73 14.73 0 1 0 26.38 13.1z" fill="rgba(249, 248, 113, 1)"></path><path d="M955.15 370.55L986.18 370.55L986.18 401.58L955.15 401.58z" fill="rgba(134, 249, 188, 1)"></path><path d="M76.22 222.57a35.49 35.49 0 1 0 58.38 40.38z" fill="rgba(221, 164, 225, 1)"></path><path d="M314.64 80.5 a11.56 11.56 0 1 0 23.12 0 a11.56 11.56 0 1 0 -23.12 0z" fill="rgba(134, 249, 188, 1)"></path><path d="M157.03 180.98a35.96 35.96 0 1 0-71.03 11.31z" fill="rgba(134, 249, 188, 1)"></path><path d="M955.11 234.15L974.13 234.15L974.13 258.66L955.11 258.66z" fill="rgba(0, 76, 112, 1)"></path><path d="M746.32 482.16a16.01 16.01 0 1 0 22.32 22.95z" stroke="rgba(221, 164, 225, 1)"></path><path d="M595.4 128.9 a9.49 9.49 0 1 0 18.98 0 a9.49 9.49 0 1 0 -18.98 0z" fill="rgba(134, 249, 188, 1)"></path><path d="M847.59 83.49a17.54 17.54 0 1 0 34.62-5.7z" fill="rgba(221, 164, 225, 1)"></path><path d="M1204.68 159.3L1244.15 159.3L1244.15 167.38L1204.68 167.38z" stroke="rgba(0, 76, 112, 1)"></path><path d="M464.07 372.62L470.21 372.62L470.21 378.76L464.07 378.76z" fill="rgba(221, 164, 225, 1)"></path><path d="M1394.48 122.83L1442 122.83L1442 136.41L1394.48 136.41z" stroke="rgba(221, 164, 225, 1)"></path><path d="M826.9 327.75L855.47 327.75L855.47 358.01L826.9 358.01z" stroke="rgba(249, 248, 113, 1)"></path><path d="M207.51 70.48L212.29 70.48L212.29 96.34L207.51 96.34z" stroke="rgba(0, 76, 112, 1)"></path><path d="M898.82 393.48 a12.98 12.98 0 1 0 25.96 0 a12.98 12.98 0 1 0 -25.96 0z" fill="rgba(221, 164, 225, 1)"></path><path d="M638.14 173.34 a34.68 34.68 0 1 0 69.36 0 a34.68 34.68 0 1 0 -69.36 0z" fill="rgba(221, 164, 225, 1)"></path><path d="M716.24 403.18L735.69 403.18L735.69 422.63L716.24 422.63z" stroke="rgba(60, 197, 239, 1)"></path><path d="M799.06 131.13a29.83 29.83 0 1 0 52.78-27.82z" fill="rgba(0, 76, 112, 1)"></path><path d="M197.89 58.56L238.32 58.56L238.32 98.03L197.89 98.03z" stroke="rgba(0, 76, 112, 1)"></path><path d="M362.4 327.86L378.62 327.86L378.62 344.08L362.4 344.08z" fill="rgba(0, 76, 112, 1)"></path><path d="M615.67 131.09 a20.69 20.69 0 1 0 41.38 0 a20.69 20.69 0 1 0 -41.38 0z" stroke="rgba(60, 197, 239, 1)"></path><path d="M1198.22 187.75 a10.77 10.77 0 1 0 21.54 0 a10.77 10.77 0 1 0 -21.54 0z" fill="rgba(134, 249, 188, 1)"></path><path d="M1349.21 391.36L1391.05 391.36L1391.05 433.2L1349.21 433.2z" stroke="rgba(60, 197, 239, 1)"></path><path d="M1419.65 110.74 a6.26 6.26 0 1 0 12.52 0 a6.26 6.26 0 1 0 -12.52 0z" stroke="rgba(134, 249, 188, 1)"></path><path d="M717.53 420.93L749.74 420.93L749.74 453.14L717.53 453.14z" fill="rgba(60, 197, 239, 1)"></path><path d="M159.92 441.77L193.13 441.77L193.13 474.98L159.92 474.98z" fill="rgba(134, 249, 188, 1)"></path><path d="M1260.01 153.88L1264.04 153.88L1264.04 157.91L1260.01 157.91z" stroke="rgba(60, 197, 239, 1)"></path><path d="M635.28 403.39L655.92 403.39L655.92 448.18L635.28 448.18z" stroke="rgba(0, 76, 112, 1)"></path><path d="M793 154.15L838.43 154.15L838.43 196.6L793 196.6z" fill="rgba(221, 164, 225, 1)"></path><path d="M893.59 61.43L936.2 61.43L936.2 100.27L893.59 100.27z" stroke="rgba(221, 164, 225, 1)"></path><path d="M982.06 159.78L1024.36 159.78L1024.36 202.08L982.06 202.08z" stroke="rgba(0, 76, 112, 1)"></path><path d="M211.84 16.8L260.45 16.8L260.45 33.61L211.84 33.61z" fill="rgba(60, 197, 239, 1)"></path><path d="M469.74 453.32a4.53 4.53 0 1 0 2.7 8.64z" stroke="rgba(134, 249, 188, 1)"></path><path d="M454.78 366.26 a14.44 14.44 0 1 0 28.88 0 a14.44 14.44 0 1 0 -28.88 0z" fill="rgba(60, 197, 239, 1)"></path><path d="M427.59 324.29L462.87 324.29L462.87 359.57L427.59 359.57z" fill="rgba(249, 248, 113, 1)"></path></g><defs><mask id="SvgjsMask1030"><rect width="1440" height="500" fill="#ffffff"></rect></mask></defs></svg>